<?xml version="1.0" standalone="no"?>
<!DOCTYPE svg PUBLIC "-//W3C//DTD SVG 20010904//EN"
 "http://www.w3.org/TR/2001/REC-SVG-20010904/DTD/svg10.dtd">
<svg version="1.0" xmlns="http://www.w3.org/2000/svg"
 width="850.000000pt" height="850.000000pt" viewBox="0 0 850.000000 850.000000"
 preserveAspectRatio="xMidYMid meet">
<metadata>
Created by potrace 1.14, written by Peter Selinger 2001-2017
</metadata>
<g transform="translate(0.000000,850.000000) scale(0.100000,-0.100000)"
fill="#000000" stroke="none">
<path d="M4406 8297 c-28 -28 -33 -66 -41 -292 -13 -373 -12 -645 3 -666 32
-46 82 5 129 132 18 48 21 89 27 382 4 181 10 335 13 343 9 25 -7 83 -29 104
-29 27 -73 25 -102 -3z"/>
<path d="M3395 8161 c-143 -37 -233 -176 -193 -296 17 -53 73 -84 119 -65 41
17 59 47 59 96 0 64 31 84 127 84 59 0 84 -5 124 -25 47 -24 93 -78 86 -100
-2 -5 -29 -25 -61 -43 -68 -40 -112 -101 -122 -171 -4 -25 -13 -63 -20 -85
-23 -63 -18 -94 20 -132 39 -39 75 -44 122 -15 25 15 36 34 52 83 11 35 23 79
27 98 5 30 17 42 79 82 85 55 106 89 106 170 0 66 -41 159 -94 212 -20 20 -69
53 -109 73 -69 35 -77 37 -182 39 -60 2 -123 -1 -140 -5z"/>
<path d="M2430 7959 c-168 -28 -283 -147 -297 -306 -8 -103 20 -228 63 -270
35 -36 60 -41 103 -18 44 22 52 59 26 130 -20 55 -19 160 1 194 19 33 69 68
115 81 75 22 194 7 254 -33 48 -30 47 -65 -3 -131 -64 -85 -81 -119 -103 -211
-26 -111 -20 -167 22 -206 34 -31 62 -38 106 -27 44 11 66 47 62 100 -5 85 11
145 57 211 70 99 84 133 84 210 0 37 -7 83 -14 102 -25 60 -108 123 -201 155
-61 21 -201 31 -275 19z"/>
<path d="M3565 7194 c-49 -53 -41 -130 15 -159 42 -22 83 -12 116 28 74 89
-53 216 -131 131z"/>
<path d="M4347 7122 c-47 -51 9 -130 70 -100 63 30 48 118 -21 118 -19 0 -40
-8 -49 -18z"/>
<path d="M2812 7000 c-65 -46 -67 -119 -6 -175 33 -30 98 -34 130 -7 63 50 58
164 -7 198 -42 21 -72 17 -117 -16z"/>
<path d="M3935 6790 c-137 -4 -266 -11 -285 -15 -97 -21 -386 -100 -484 -131
-134 -43 -452 -204 -611 -309 -80 -53 -133 -97 -189 -159 -81 -90 -100 -127
-86 -175 4 -15 6 -39 4 -52 -14 -102 -13 -99 -112 -203 -128 -133 -152 -170
-159 -240 -5 -50 -3 -59 21 -91 l28 -36 -27 -44 c-18 -32 -32 -45 -48 -45 -33
0 -67 -28 -67 -55 0 -26 33 -55 62 -55 26 0 22 -13 -10 -32 -15 -9 -65 -40
-112 -68 -129 -79 -159 -90 -256 -90 -95 0 -232 24 -284 50 -19 10 -46 29 -58
43 -23 25 -24 27 -13 134 6 59 13 174 17 255 l6 146 32 6 c17 2 90 8 161 11
72 3 171 12 220 20 50 7 118 16 153 19 l62 6 0 -33 c0 -40 15 -57 50 -57 41 0
50 17 50 95 0 59 -4 75 -20 90 -19 17 -26 17 -167 1 -82 -9 -173 -21 -203 -26
-30 -5 -96 -9 -147 -9 -110 -1 -239 -19 -251 -35 -17 -22 -31 -102 -37 -221
-4 -66 -13 -180 -21 -252 -8 -73 -12 -144 -8 -158 7 -27 90 -107 134 -130 33
-17 188 -55 226 -55 27 0 25 -3 -26 -35 -30 -19 -80 -47 -110 -61 -262 -126
-365 -181 -424 -226 -71 -55 -159 -113 -262 -172 -33 -20 -71 -47 -84 -61 -13
-14 -33 -25 -44 -25 -39 0 -95 -21 -124 -45 -39 -33 -92 -134 -101 -196 -10
-64 8 -179 39 -240 12 -24 44 -70 71 -101 36 -42 49 -65 49 -88 0 -58 88 -255
145 -326 52 -64 346 -251 456 -289 32 -12 105 -18 275 -22 l232 -6 83 41 c46
22 108 50 138 62 l54 21 -69 -74 c-108 -115 -184 -212 -184 -234 0 -11 7 -27
16 -34 14 -11 20 -9 43 18 333 392 491 502 831 583 147 35 212 51 260 64 33
10 94 16 155 16 93 0 104 -2 142 -27 l42 -27 -62 -43 c-34 -25 -95 -59 -134
-78 -40 -18 -99 -54 -132 -79 -59 -46 -60 -46 -138 -46 -44 0 -103 7 -132 16
-63 18 -140 15 -154 -7 -7 -11 -3 -34 16 -80 29 -75 62 -214 53 -228 -14 -22
-119 -74 -132 -65 -7 5 -45 34 -86 65 -40 31 -99 71 -131 89 -51 28 -62 31
-84 21 -24 -11 -25 -15 -19 -64 20 -153 22 -219 6 -224 -8 -2 -49 -18 -91 -34
-64 -25 -85 -29 -123 -24 -61 10 -74 -2 -135 -125 -26 -53 -64 -117 -84 -143
-19 -26 -38 -55 -42 -66 -5 -15 -115 -99 -115 -87 0 2 11 23 24 47 48 85 166
417 166 466 0 7 -7 13 -15 13 -21 0 -58 -69 -120 -228 -62 -160 -115 -272
-139 -291 -14 -12 -16 -1 -16 111 0 210 38 435 95 564 26 58 26 88 0 98 -25 9
-43 -4 -76 -55 -71 -111 -120 -357 -122 -617 l-2 -163 33 -30 c29 -26 39 -29
105 -29 58 0 83 5 124 25 64 32 138 97 161 141 l17 33 250 4 c157 3 285 11
346 20 106 18 345 99 655 224 7 2 9 -7 7 -24 -6 -36 26 -109 75 -175 57 -76
75 -117 142 -314 68 -202 83 -273 101 -474 10 -126 10 -159 -4 -255 -15 -98
-20 -113 -44 -133 -16 -13 -52 -47 -80 -74 -56 -54 -57 -56 -53 -167 l2 -65
-37 33 c-20 18 -40 29 -43 26 -4 -3 0 -11 8 -16 12 -9 12 -10 -3 -5 -10 3 -21
6 -24 6 -3 0 1 7 8 16 8 10 17 51 20 93 l7 76 -2 -82 c0 -44 2 -76 6 -70 4 7
8 44 8 82 0 52 -5 78 -20 102 -34 57 -59 63 -261 63 l-182 0 -51 -39 c-28 -22
-66 -56 -84 -76 -30 -34 -32 -42 -32 -108 l-1 -72 -51 135 c-28 74 -55 141
-61 148 -7 8 -50 12 -151 12 l-141 0 -60 -49 c-84 -69 -104 -99 -157 -241 -26
-69 -48 -123 -50 -120 -1 3 -4 95 -7 205 l-6 200 -94 3 -93 3 -57 -47 c-54
-45 -56 -45 -59 -23 -8 72 -3 69 -107 69 l-95 0 -75 -65 -75 -66 0 54 c0 29
-5 58 -12 65 -15 15 -304 17 -343 2 -35 -13 -162 -119 -198 -164 -43 -55 -47
-77 -47 -249 0 -136 3 -168 19 -202 40 -87 86 -105 272 -105 l142 0 56 47 c31
27 65 56 76 66 20 18 20 18 23 -35 2 -29 8 -58 14 -65 7 -9 38 -13 95 -13 l84
0 57 46 57 47 6 -35 c9 -56 13 -58 109 -58 l89 0 58 48 c32 27 64 56 72 65 22
28 31 20 31 -29 0 -78 8 -84 106 -84 l85 0 62 50 62 50 3 -37 c5 -58 14 -63
110 -63 83 0 86 1 131 37 25 20 63 52 84 72 l37 35 0 -60 c0 -33 5 -65 12 -72
7 -7 44 -12 96 -12 l84 0 64 51 64 51 0 -32 c0 -63 11 -70 109 -70 88 0 89 0
139 40 l50 40 9 -62 c9 -68 25 -84 41 -40 9 25 14 28 41 24 29 -4 31 -7 31
-46 0 -67 11 -116 26 -116 11 0 14 19 14 80 l0 80 186 0 186 0 73 60 74 60 3
-57 3 -58 202 -3 201 -2 59 48 c32 27 64 56 72 65 22 27 31 20 31 -22 0 -22 4
-51 10 -65 l10 -26 211 0 212 0 51 40 c29 21 62 51 76 65 13 14 27 25 31 25 5
0 9 -28 11 -62 l3 -63 93 -3 93 -3 74 61 c41 34 80 70 85 80 6 11 29 28 53 38
23 11 81 54 130 96 l87 76 0 -38 c0 -32 -12 -56 -63 -128 -80 -112 -146 -226
-190 -329 -45 -105 -51 -125 -38 -125 6 0 36 50 67 112 61 122 133 241 188
314 l36 47 0 -82 c0 -119 2 -121 109 -121 l89 0 55 45 c30 24 70 62 88 83 19
22 45 43 59 47 30 9 94 58 174 134 32 31 55 47 51 36 -15 -35 -18 -314 -5
-330 9 -11 35 -15 95 -15 l83 0 61 51 c65 54 68 53 73 -11 l3 -35 80 -3 c44
-2 89 -1 100 2 11 3 54 36 95 73 l75 67 5 -69 5 -70 92 -3 91 -3 60 50 c33 27
63 47 66 44 3 -4 6 -20 6 -38 0 -48 15 -55 108 -55 l84 0 79 65 79 66 0 -54
c0 -29 5 -58 12 -65 7 -7 44 -12 96 -12 l85 0 56 46 56 46 6 -34 c9 -56 13
-58 106 -58 84 0 87 1 132 37 25 20 63 52 83 72 l38 35 0 152 c0 149 -1 153
-26 183 -14 17 -32 31 -40 31 -21 0 -17 19 22 109 19 45 33 89 30 97 -4 11
-27 14 -98 14 l-92 0 -47 -40 c-26 -22 -50 -40 -53 -40 -3 0 -6 11 -6 24 0 53
-5 56 -105 56 -92 0 -94 0 -137 -36 -23 -19 -60 -53 -80 -75 -38 -40 -38 -40
-38 -125 0 -60 -3 -83 -11 -78 -8 4 -9 -1 -4 -17 5 -19 2 -17 -14 9 -11 17
-26 32 -33 32 -6 0 -8 3 -5 7 4 3 16 -2 27 -12 11 -10 20 -13 20 -8 0 6 -9 17
-21 24 -17 12 -19 18 -10 42 17 43 13 117 -9 165 -30 65 -55 72 -271 72 l-182
0 -56 -48 c-98 -83 -100 -87 -101 -177 l-1 -80 -52 136 c-29 75 -58 143 -66
153 -11 13 -36 16 -155 16 l-142 0 -81 -77 c-76 -73 -84 -84 -114 -166 -17
-48 -33 -87 -34 -87 -1 0 0 30 2 68 7 88 -11 179 -40 210 -39 42 -83 54 -205
54 -62 1 -115 4 -117 8 -7 11 72 133 134 205 41 48 57 73 50 80 -17 16 -137
-124 -203 -237 -23 -40 -33 -48 -57 -48 -29 0 -122 -67 -165 -118 l-21 -26
-21 47 c-36 80 -83 93 -337 89 l-130 -2 -70 -65 c-38 -35 -73 -64 -77 -65 -5
0 -8 27 -8 59 0 37 -5 63 -12 68 -7 4 -107 6 -222 5 -235 -3 -214 3 -313 -94
l-53 -51 0 52 c0 93 5 91 -196 91 l-174 0 -32 45 c-31 43 -58 59 -58 33 -1
-21 -36 31 -71 104 -33 68 -45 80 -55 54 -7 -19 67 -162 111 -213 l33 -39 -69
-63 -69 -62 0 -60 0 -59 -82 0 c-81 0 -82 0 -130 -41 l-48 -40 0 151 c0 85 -5
160 -10 171 -8 14 -21 19 -51 19 -38 0 -41 2 -36 23 21 83 28 215 17 344 -17
208 -35 298 -99 481 -70 201 -110 285 -168 353 -24 28 -53 73 -65 100 -11 28
-29 56 -39 63 -17 12 -15 15 30 35 27 13 77 45 112 72 35 27 136 97 223 156
125 84 180 114 255 140 128 45 175 72 179 103 5 30 -23 51 -57 44 -53 -12
-217 -67 -256 -87 -57 -28 -315 -200 -379 -252 -86 -71 -287 -170 -446 -220
-30 -9 -108 -37 -172 -61 -147 -55 -251 -72 -515 -83 -114 -5 -209 -9 -210 -7
-1 1 14 33 33 71 31 62 38 69 62 67 15 -1 87 18 161 43 73 25 141 45 150 45
14 0 180 56 264 89 58 23 124 78 276 231 174 175 235 224 334 268 76 35 222
137 261 183 44 53 31 83 -61 145 l-58 39 -160 0 c-136 0 -171 -4 -230 -22 -38
-12 -117 -33 -175 -47 -213 -51 -264 -67 -363 -117 -56 -28 -145 -67 -197 -86
-52 -18 -107 -43 -122 -53 -15 -11 -61 -33 -103 -50 -42 -17 -103 -44 -135
-61 l-58 -30 -198 7 c-110 3 -217 10 -238 16 -46 11 -181 86 -319 175 -109 71
-138 105 -197 230 -54 116 -56 123 -30 123 61 0 179 93 287 226 43 53 90 117
105 142 62 107 16 197 -131 252 -28 11 -62 20 -74 20 -13 0 -27 3 -30 7 -8 7
3 16 112 83 45 27 103 67 129 88 69 57 152 104 312 177 78 35 178 86 223 113
45 27 105 61 132 77 153 85 386 233 424 269 42 40 101 143 101 178 0 48 54 32
130 -37 40 -36 68 -55 85 -55 14 0 66 20 115 45 76 38 90 49 90 69 0 30 -24
56 -51 56 -11 0 -43 -13 -72 -30 -30 -16 -60 -30 -68 -30 -8 0 -31 16 -50 36
-39 42 -121 84 -162 84 -35 0 -76 44 -77 82 0 31 49 95 140 183 34 33 72 76
85 96 26 40 45 126 45 204 0 44 5 57 30 83 17 18 30 38 30 45 0 43 196 173
462 308 188 95 285 129 573 206 l170 45 345 11 c338 10 348 10 425 -11 44 -11
132 -28 195 -37 124 -18 298 -69 381 -110 112 -57 469 -284 586 -372 17 -13
49 -48 71 -76 41 -54 125 -190 135 -218 11 -32 -51 3 -140 78 -48 40 -106 80
-131 90 -40 15 -47 15 -71 2 -40 -23 -33 -50 19 -77 25 -13 80 -55 122 -93 91
-83 164 -118 267 -131 42 -6 94 -19 117 -29 22 -10 74 -33 115 -49 41 -17 84
-38 97 -46 30 -20 112 -133 112 -155 0 -10 11 -31 25 -46 l25 -28 20 24 c44
52 9 161 -84 255 -40 41 -68 59 -126 81 -41 15 -97 39 -125 53 -27 14 -72 28
-100 31 -37 5 -49 11 -46 21 15 50 -28 138 -140 291 -69 93 -198 188 -539 393
-162 98 -201 117 -315 154 -78 25 -184 49 -266 62 -74 11 -167 29 -205 40 -74
22 -58 21 -489 10z m-1367 -3717 c28 -3 52 -8 52 -11 0 -6 -123 -123 -125
-119 -1 1 -6 27 -12 57 -6 30 -15 64 -19 74 -6 17 -4 18 22 12 16 -4 53 -10
82 -13z m-422 -272 l61 -45 -56 -23 c-89 -36 -91 -35 -91 53 0 85 -6 84 86 15z
m-1460 -1642 c-56 -13 -92 -38 -110 -76 -24 -51 -23 -363 2 -413 32 -64 66
-75 242 -75 l155 0 0 70 0 70 -105 6 -105 5 110 4 110 4 -110 5 -110 6 -3 53
-3 52 35 0 c28 0 48 11 97 53 111 94 99 108 98 -121 l0 -201 -61 -51 -60 -50
-146 0 c-133 0 -151 2 -187 23 -26 14 -48 37 -62 67 -21 40 -23 58 -23 207 0
116 4 173 14 196 16 38 127 140 177 161 19 9 45 15 59 15 18 -1 14 -4 -14 -10z
m302 -66 l3 -70 -63 -52 c-60 -48 -66 -51 -121 -51 l-58 0 3 -84 c2 -46 0 -82
-4 -79 -14 8 -9 229 5 241 7 6 60 13 118 14 l104 3 3 63 c2 42 -2 69 -10 79
-11 14 -11 15 2 11 11 -3 16 -23 18 -75z m174 69 c-9 -7 -12 -71 -10 -288 l3
-279 85 0 85 0 3 103 3 102 64 0 65 0 1 -82 c1 -46 2 -87 4 -93 1 -5 3 -16 3
-22 2 -16 168 -18 175 -3 4 7 5 7 4 0 -1 -5 -27 -30 -57 -55 l-55 -45 -86 0
c-70 0 -88 3 -93 16 -3 9 -7 55 -8 102 -1 60 -3 71 -5 35 -4 -49 -7 -54 -63
-103 l-60 -52 -81 1 c-44 0 -85 3 -90 7 -5 3 -9 126 -8 287 l0 282 57 47 c31
26 62 48 67 48 6 0 4 -4 -3 -8z m179 -98 c3 -54 6 -77 7 -50 2 45 6 53 50 93
51 48 98 80 74 50 -10 -11 -13 -42 -11 -104 l3 -88 -67 -3 -67 -3 0 100 c0 58
-4 101 -10 104 -6 3 -5 4 2 3 9 -2 15 -33 19 -102z m309 96 c0 -5 -2 -10 -4
-10 -3 0 -8 5 -11 10 -3 6 -1 10 4 10 6 0 11 -4 11 -10z m293 2 c-7 -4 -35
-68 -64 -142 -51 -133 -52 -137 -56 -260 -5 -180 -10 -171 90 -168 l82 3 3 68
3 67 69 0 69 0 3 -67 3 -68 80 -3 80 -3 -6 133 c-5 130 -7 136 -57 267 -28 74
-57 138 -64 142 -7 5 -62 10 -123 11 l-110 2 115 6 c63 3 122 9 131 14 12 5
22 1 33 -16 9 -12 16 -27 16 -33 -1 -5 -8 2 -16 18 -8 15 -20 27 -27 27 -9 0
-9 -2 0 -8 6 -4 33 -64 60 -132 47 -124 48 -127 54 -275 l6 -150 -1 157 c-1
87 2 150 6 140 4 -9 7 -79 7 -154 l1 -137 -56 -48 c-47 -41 -63 -49 -107 -53
-29 -3 -70 -3 -92 0 l-40 5 -3 68 c-2 37 -7 67 -12 67 -6 0 -10 -9 -10 -19 0
-11 -26 -42 -60 -71 l-60 -52 -81 -1 c-59 0 -84 4 -90 14 -6 8 -8 74 -6 149 4
132 5 138 51 265 46 125 50 132 109 187 34 32 67 58 72 58 6 0 5 -4 -2 -8z
m569 0 c-9 -7 -12 -71 -10 -288 l3 -279 85 0 85 0 3 85 c2 46 7 87 11 90 5 3
36 3 70 2 l61 -4 0 -73 c0 -107 -2 -105 95 -105 57 0 85 4 88 13 3 6 6 8 6 2
1 -5 -26 -32 -60 -59 l-60 -49 -82 2 c-50 1 -84 7 -89 14 -4 7 -8 47 -8 90 0
44 -4 77 -10 77 -5 0 -10 -18 -10 -39 0 -35 -6 -44 -59 -90 l-60 -52 -88 3
-88 3 -3 280 -3 280 58 52 c32 29 63 53 68 53 6 0 4 -4 -3 -8z m351 1 c-7 -2
-19 -2 -25 0 -7 3 -2 5 12 5 14 0 19 -2 13 -5z m317 -12 c-11 -21 -14 -499 -4
-539 l6 -22 227 2 226 3 0 150 0 150 -80 1 -80 1 75 -6 75 -6 0 -140 c1 -137
1 -138 -2 -18 -4 141 -6 145 -94 153 l-59 6 0 -73 0 -73 -55 0 -55 0 1 38 c0
33 6 42 61 85 60 46 63 47 133 47 42 0 76 -5 83 -12 8 -8 12 -57 12 -155 l0
-142 -61 -51 c-47 -39 -68 -50 -97 -51 -199 -3 -418 4 -424 14 -4 7 -8 132 -8
278 0 298 -5 275 78 343 50 41 57 44 42 17z m180 9 c0 -5 -2 -10 -4 -10 -3 0
-8 5 -11 10 -3 6 -1 10 4 10 6 0 11 -4 11 -10z m452 1 c-9 -5 -12 -28 -10 -77
l3 -69 53 -3 53 -3 -3 -132 -3 -132 -53 -3 -53 -3 3 -72 3 -72 189 -3 c145 -2
191 1 198 10 4 7 8 8 8 3 0 -9 -34 -40 -102 -94 -13 -10 -52 -13 -145 -12 -71
0 -158 0 -195 1 l-68 0 0 74 0 74 55 47 55 47 -3 87 -2 86 -50 5 -50 5 -3 75
-2 75 57 47 c32 26 63 47 68 48 6 0 4 -4 -3 -9z m388 -1 c0 -5 -2 -10 -4 -10
-3 0 -8 5 -11 10 -3 6 -1 10 4 10 6 0 11 -4 11 -10z m181 -8 c-11 -20 -15
-496 -5 -537 l6 -25 207 2 206 3 3 73 3 72 -121 0 -120 0 0 35 0 34 88 3 87 3
0 65 0 65 -87 3 -88 3 0 29 0 30 98 0 c145 0 142 -1 142 81 0 38 -3 69 -7 69
-5 0 -8 -28 -7 -62 1 -36 -1 -45 -3 -21 -2 23 -10 46 -17 52 -7 6 -87 12 -197
14 l-184 2 191 3 c123 1 194 6 201 13 22 22 33 -3 33 -71 0 -66 -1 -70 -33
-96 -34 -26 -34 -27 -29 -99 l4 -72 -42 -34 -42 -34 68 -5 69 -5 3 -75 2 -75
-60 -49 -61 -49 -206 2 c-152 1 -209 5 -215 14 -4 6 -8 132 -8 278 0 298 -5
275 78 343 50 41 57 44 43 18z m611 10 c-9 -7 -12 -71 -10 -288 l3 -279 85 0
85 0 3 76 3 77 87 4 c154 8 184 38 193 198 l6 105 1 -93 c2 -119 -9 -144 -94
-217 -72 -61 -117 -85 -159 -85 -21 0 -25 -5 -25 -30 0 -24 -11 -39 -61 -80
l-60 -50 -90 0 -89 0 0 288 0 287 58 47 c31 26 62 47 67 48 6 0 4 -4 -3 -8z
m372 -6 c36 -15 76 -60 76 -85 0 -9 -7 -3 -16 14 -23 45 -38 56 -91 71 -26 7
-38 13 -25 13 12 1 37 -5 56 -13z m248 2 c-9 -9 -12 -84 -12 -274 0 -144 3
-269 6 -278 5 -13 23 -16 89 -16 57 0 85 4 88 13 3 6 6 8 6 2 1 -5 -26 -32
-59 -58 l-59 -48 -82 0 c-56 0 -85 4 -90 13 -5 7 -9 135 -9 283 l0 270 57 52
c32 29 62 52 68 53 5 0 4 -5 -3 -12z m341 5 c-7 -2 -19 -2 -25 0 -7 3 -2 5 12
5 14 0 19 -2 13 -5z m375 -5 c-9 -7 -39 -75 -67 -150 l-52 -138 3 -137 3 -138
79 -3 c57 -2 82 1 87 10 5 7 9 9 9 3 0 -5 -27 -32 -59 -58 l-60 -48 -83 3 -83
3 1 155 0 155 50 127 c47 122 52 129 109 178 32 27 64 50 69 50 5 0 3 -6 -6
-12z m277 2 c3 -6 -1 -7 -9 -4 -18 7 -21 14 -7 14 6 0 13 -4 16 -10z m297 2
c-9 -7 -12 -71 -10 -288 l3 -279 79 -3 c56 -2 82 1 88 10 7 10 9 10 6 1 -2 -7
-28 -33 -58 -58 -53 -43 -57 -45 -125 -46 -69 -1 -97 0 -103 6 -2 2 -3 169 -2
460 l0 111 56 47 c31 26 61 47 68 47 7 0 7 -3 -2 -8z m378 -7 c32 -17 60 -52
60 -75 -1 -8 -7 -1 -15 17 -14 33 -40 52 -90 64 -25 6 -26 7 -7 8 13 1 36 -6
52 -14z m292 7 c-9 -7 -12 -71 -10 -288 l3 -279 85 0 85 0 3 103 3 102 64 0
64 0 3 -102 3 -103 85 0 85 0 3 148 3 148 -30 29 c-16 17 -37 30 -45 30 -9 0
-16 5 -16 10 0 19 76 -28 88 -55 8 -16 12 -79 12 -168 l0 -142 -59 -47 c-58
-46 -60 -47 -139 -49 -44 -1 -85 1 -91 5 -7 4 -12 45 -13 104 -1 57 -3 75 -5
45 -4 -49 -7 -54 -63 -103 l-59 -51 -88 3 -88 3 -3 280 -3 280 58 52 c32 29
63 53 68 53 6 0 4 -4 -3 -8z m176 -46 l3 -47 59 51 c33 29 65 49 72 47 9 -4 8
-6 -2 -6 -9 -1 -33 -41 -60 -103 -28 -63 -51 -103 -60 -103 -12 0 -16 20 -18
103 -1 56 -6 102 -10 102 -4 0 -6 -24 -5 -52 0 -29 -1 -39 -4 -23 -8 47 -20
55 -87 57 l-61 1 67 6 c36 3 70 9 74 14 17 16 29 -2 32 -47z m300 29 c-3 -3
-9 2 -12 12 -6 14 -5 15 5 6 7 -7 10 -15 7 -18z m-7094 9 c12 -5 16 -20 15
-68 -2 -60 -2 -60 -8 -16 -4 25 -10 51 -14 58 -6 8 -47 13 -140 14 l-132 2
130 6 c72 3 131 7 132 8 1 1 8 -1 17 -4z m350 0 c12 -5 16 -19 14 -58 -1 -40
-2 -44 -5 -16 -7 52 -18 60 -92 62 l-66 1 65 7 c36 4 66 7 67 8 1 1 8 -1 17
-4z m322 -6 c5 -7 7 -134 4 -283 l-5 -270 -5 270 -5 270 -70 5 -70 6 65 5 c36
3 68 6 71 7 4 1 10 -4 15 -10z m1299 -14 c14 -15 25 -32 25 -38 0 -6 -7 -1
-15 11 -9 12 -26 29 -38 38 -12 8 -16 15 -9 15 7 0 24 -12 37 -26z m411 17 c5
-6 7 -78 4 -178 l-5 -168 -5 165 -5 165 -30 4 c-30 4 -30 4 -5 11 35 11 35 11
46 1z m843 -39 c-1 -36 -2 -36 -8 -7 l-6 30 -150 5 -150 4 150 6 c83 3 153 4
158 2 4 -2 6 -20 6 -40z m1801 38 c-8 -5 -12 -10 -8 -10 3 0 14 -3 24 -7 12
-5 15 -3 9 6 -6 10 -3 11 14 2 24 -13 51 -61 50 -88 0 -12 -3 -10 -8 7 -10 32
-33 70 -43 70 -4 0 1 -15 12 -32 17 -28 20 -49 18 -138 l-2 -105 -5 96 c-10
156 -47 187 -236 191 l-110 2 140 6 c77 3 145 7 150 8 6 1 3 -3 -5 -8z m602
-2 c8 -7 37 -69 63 -138 l48 -125 3 -140 2 -140 -8 120 c-7 108 -12 132 -54
245 -69 182 -54 170 -194 172 l-117 2 115 6 c63 3 118 7 121 8 3 1 12 -4 21
-10z m1439 -1 c-1 -4 -3 -7 -6 -7 -3 0 -35 1 -72 2 l-68 1 65 7 c75 7 82 7 81
-3z m-5136 -9 c39 -17 55 -58 54 -130 l-2 -63 -7 56 c-7 59 -30 103 -64 122
-13 7 -85 14 -186 18 l-165 5 172 2 c116 1 181 -2 198 -10z m2474 -1 c53 -27
66 -60 68 -170 l1 -102 -7 88 c-9 94 -21 121 -75 161 -24 19 -46 22 -194 27
l-167 5 175 2 c122 1 182 -2 199 -11z m294 6 c-7 -2 -19 -2 -25 0 -7 3 -2 5
12 5 14 0 19 -2 13 -5z m1626 -9 c31 -22 51 -74 50 -126 l-1 -43 -13 53 c-26
104 -50 116 -255 122 l-165 6 180 2 c153 2 184 0 204 -14z m742 -51 c-11 -21
-20 -35 -21 -31 0 12 33 78 38 74 2 -2 -6 -21 -17 -43z m-7093 -15 l3 -48 -88
0 -88 0 -32 -40 c-33 -38 -33 -39 -33 -148 0 -90 3 -112 17 -123 10 -9 51 -15
120 -17 l103 -4 0 -44 0 -44 -117 2 c-109 2 -111 2 -30 5 68 3 87 7 87 18 0
12 -19 15 -100 15 -94 0 -103 2 -125 25 -24 24 -25 27 -23 172 l1 148 6 -137
c6 -133 7 -138 34 -165 26 -27 32 -28 142 -32 98 -3 115 -1 115 12 0 12 -20
16 -110 19 -148 4 -144 -1 -148 181 -1 82 2 148 7 157 8 11 35 16 106 18 52 2
95 8 95 13 0 5 -37 10 -82 10 l-83 2 103 7 c57 4 105 10 108 13 26 25 -97 37
-195 18 -44 -9 -85 -42 -109 -88 -8 -14 -12 -80 -12 -180 0 -132 3 -163 17
-183 17 -25 17 -25 -4 -7 -39 34 -44 65 -41 250 3 195 6 202 69 217 19 5 90 8
159 7 l125 -2 3 -47z m350 -50 c1 -54 7 -99 12 -99 6 -1 17 -1 25 -1 91 0 115
3 115 16 0 8 10 16 23 18 20 3 22 9 25 86 l3 82 47 0 c27 0 53 -5 60 -12 9 -9
12 -80 12 -260 l0 -248 -60 0 -59 0 -3 103 -3 102 -77 3 c-72 3 -78 1 -78 -17
0 -11 -9 -22 -20 -26 -18 -6 -20 -15 -20 -86 l0 -79 -60 0 -60 0 0 260 0 261
58 -3 57 -3 3 -97z m880 94 c12 -8 76 -162 69 -168 -2 -2 -18 30 -37 72 -37
84 -51 94 -127 94 -40 0 -50 -5 -88 -42 -29 -30 -52 -68 -76 -128 -31 -79 -33
-93 -34 -202 0 -130 16 -162 26 -51 5 66 6 67 7 16 2 -40 6 -53 17 -53 11 0
15 12 15 50 l0 50 125 0 124 0 3 -65 c2 -36 8 -65 13 -65 6 0 13 39 16 87 l5
88 2 -72 c2 -60 5 -73 18 -73 14 0 16 16 13 131 -3 113 -2 126 8 93 6 -21 12
-92 12 -157 l1 -118 -57 3 -58 3 -3 68 -3 67 -79 0 c-72 0 -80 -2 -80 -19 0
-10 -9 -21 -20 -24 -16 -4 -20 -14 -20 -51 l0 -46 -55 0 -55 0 0 140 c0 133 1
143 34 232 59 163 43 148 165 148 58 0 112 -4 119 -8z m656 -2 c64 -14 80 -39
84 -125 3 -51 1 -75 -7 -75 -6 0 -11 -6 -11 -14 0 -8 -3 -17 -8 -19 -4 -3 -5
31 -3 75 6 135 -22 158 -189 158 -95 0 -100 -1 -100 -21 0 -12 -8 -23 -20 -26
-19 -5 -20 -14 -20 -224 0 -134 4 -220 10 -224 6 -4 10 25 10 79 0 47 5 88 10
91 6 4 10 -20 10 -65 0 -53 3 -71 13 -68 8 3 13 30 15 77 l3 73 109 -4 c72 -2
113 -7 122 -16 7 -7 15 -46 18 -88 7 -97 24 -101 28 -6 3 73 3 74 -34 108 -41
39 -40 50 1 34 15 -6 30 -8 33 -5 3 2 -6 9 -19 14 -15 6 -18 10 -8 10 9 1 24
-9 35 -21 10 -12 13 -18 5 -13 -11 6 -13 4 -8 -9 4 -10 7 -49 7 -87 0 -55 3
-69 15 -69 12 0 15 15 15 76 0 41 -5 85 -11 96 -8 16 -8 19 1 13 24 -15 40
-76 40 -155 l0 -80 -59 0 c-70 0 -71 2 -71 105 0 85 0 85 -96 85 -62 0 -64 -1
-64 -25 0 -18 -5 -25 -20 -25 -18 0 -20 -7 -20 -70 l0 -71 -57 3 -58 3 -3 245
c-1 134 0 250 3 257 5 16 237 18 299 3z m485 -3 c7 -9 12 -86 13 -213 l3 -199
57 -3 c49 -3 57 0 63 18 3 11 15 20 26 20 17 0 19 7 19 61 l0 60 53 -3 52 -3
3 -122 3 -123 -201 0 -200 0 0 164 c0 224 14 242 20 26 l5 -175 153 -3 c147
-2 154 -2 159 18 3 11 14 20 24 20 17 0 19 9 19 95 0 78 -3 95 -15 95 -12 0
-15 -17 -17 -82 -1 -46 -3 -65 -5 -43 -8 99 -33 113 -33 19 l0 -54 -110 0
-109 0 -3 220 c-2 121 0 220 3 220 4 0 12 -6 18 -13z m556 -17 c15 -30 15 -30
-10 -30 -14 0 -25 -4 -25 -10 0 -5 13 -10 29 -10 17 0 33 -5 36 -11 5 -7 -6
-9 -31 -7 -39 3 -39 3 -42 51 -4 56 18 65 43 17z m283 18 c7 -7 12 -29 12 -50
0 -37 -1 -38 -35 -38 -28 0 -35 -4 -35 -20 0 -13 -7 -20 -20 -20 -20 0 -20 -5
-18 -142 l3 -143 50 -5 50 -5 3 -42 3 -43 -170 0 -171 0 0 45 c0 44 1 45 31
45 22 0 32 5 36 20 3 11 14 20 24 20 18 0 19 9 19 121 0 77 4 118 10 114 6 -4
10 -63 10 -146 l0 -139 -40 0 c-29 0 -40 -4 -40 -15 0 -11 12 -15 43 -17 37
-1 36 -2 -16 -7 -105 -11 -68 -26 71 -29 111 -2 132 0 132 12 0 11 -15 16 -57
19 -48 3 -44 4 25 5 65 2 82 5 82 17 0 12 -14 15 -65 15 l-65 0 2 178 3 177
38 3 c20 2 37 7 37 13 0 5 -17 10 -37 10 -42 1 -33 4 40 14 30 4 47 11 44 18
-2 8 -46 14 -128 17 l-124 6 120 2 c83 1 125 -2 133 -10z m610 -35 l3 -43
-101 0 c-96 0 -101 -1 -109 -24 -5 -13 -17 -26 -25 -29 -19 -7 -21 -48 -4 -65
9 -9 7 -12 -10 -12 -21 0 -22 5 -22 70 l0 70 110 0 c67 0 110 4 110 10 0 6
-45 11 -112 12 l-113 2 130 6 c72 4 131 8 133 9 1 0 2 8 2 16 0 13 -23 15
-145 15 l-145 0 0 -24 c0 -15 -7 -26 -20 -29 -20 -5 -20 -12 -18 -224 l3 -218
143 -3 c122 -2 142 0 142 13 0 13 -20 15 -130 15 l-130 0 2 93 2 92 3 -87 4
-88 144 0 c105 0 145 3 148 13 3 6 6 -5 6 -25 l1 -38 -180 0 -180 0 0 260 0
260 178 -2 177 -3 3 -42z m405 40 c-86 -4 -93 -5 -93 -24 0 -13 -8 -23 -20
-26 -20 -5 -20 -12 -18 -224 2 -138 7 -219 13 -219 6 0 13 30 16 67 5 66 6 67
7 16 2 -40 6 -53 17 -53 12 0 15 13 15 60 l0 60 74 0 c89 0 118 10 165 56 35
34 36 36 39 122 3 70 0 91 -13 107 -14 17 -16 17 -11 3 7 -23 3 -23 -19 2 -18
20 -18 21 1 15 19 -7 19 -6 0 9 -11 9 -15 16 -10 16 6 0 23 -14 40 -31 27 -28
29 -37 33 -120 4 -112 -4 -156 -30 -170 -12 -6 -63 -13 -115 -16 -83 -5 -94
-8 -94 -24 0 -12 -7 -19 -20 -19 -18 0 -20 -7 -20 -60 l0 -60 -60 0 -60 0 0
260 0 260 128 -2 c113 -2 117 -3 35 -5z m492 -20 c-8 -31 -7 -462 1 -475 14
-21 24 9 26 75 2 70 2 70 5 15 3 -42 8 -58 18 -58 12 0 15 14 15 59 l0 59 93
4 c90 3 95 4 133 37 21 18 44 45 51 60 14 30 16 136 3 166 l-9 20 0 -20 c-1
-18 -3 -17 -14 5 -7 14 -28 30 -47 37 -24 8 -29 12 -14 12 12 1 33 -8 48 -20
24 -19 35 -15 19 7 -5 5 2 -1 14 -13 12 -13 25 -42 29 -69 9 -61 0 -180 -16
-199 -18 -22 -76 -35 -157 -35 -40 0 -72 -3 -72 -7 3 -21 -2 -33 -16 -33 -12
0 -15 -13 -15 -60 l0 -60 -59 0 c-45 0 -60 4 -65 16 -8 20 -6 471 1 491 3 7
12 13 20 13 11 0 14 -7 8 -27z m183 20 c-27 -2 -69 -2 -95 0 -27 2 -5 3 47 3
52 0 74 -1 48 -3z m720 -6 c10 -12 72 -166 72 -177 -1 -3 -7 6 -15 20 -9 15
-14 19 -15 10 0 -13 -1 -13 -10 0 -5 8 -10 20 -10 25 0 6 5 3 10 -5 19 -30 10
13 -13 60 -28 56 -57 72 -125 67 -47 -3 -58 -9 -86 -39 -18 -20 -49 -77 -70
-127 -34 -87 -36 -96 -36 -212 0 -77 4 -118 10 -114 6 3 11 34 12 68 1 57 2
58 5 15 3 -33 9 -48 18 -48 9 0 15 15 17 48 l3 47 119 3 c89 2 121 -1 128 -10
4 -7 8 -39 8 -71 0 -93 20 -57 22 41 l2 87 3 -72 c3 -57 7 -73 19 -73 13 0 15
19 12 134 -2 74 -2 133 0 131 15 -14 32 -129 32 -212 l0 -103 -60 0 -60 0 0
70 0 70 -85 0 c-78 0 -85 -2 -85 -20 0 -11 -7 -20 -15 -20 -11 0 -15 -12 -15
-50 l0 -50 -61 0 -61 0 4 148 c4 143 5 150 43 247 21 55 43 106 48 113 13 17
220 17 235 -1z m646 3 c60 -13 88 -48 94 -114 6 -72 -15 -122 -50 -118 -3 1
-12 -5 -18 -13 -7 -8 -22 -15 -34 -14 -18 0 -17 2 6 10 15 6 30 20 34 32 7 21
7 21 14 2 6 -16 9 -13 15 18 13 67 1 136 -29 165 -25 26 -32 27 -146 31 l-120
3 0 -25 c0 -16 -7 -26 -20 -30 -20 -5 -20 -12 -18 -224 2 -139 7 -217 13 -216
6 2 13 42 16 90 l5 88 2 -72 c2 -57 5 -73 17 -73 12 0 15 15 15 75 l0 75 104
0 c137 0 149 -8 154 -109 6 -94 22 -91 22 4 0 67 -3 79 -25 100 -13 14 -30 25
-37 25 -8 0 -9 3 -2 10 14 14 62 -4 70 -25 3 -8 7 -45 8 -82 0 -43 5 -68 14
-70 15 -6 17 162 2 172 -7 4 -9 -3 -5 -22 3 -15 2 -21 -1 -13 -4 8 -11 22 -15
32 -13 25 20 16 43 -11 15 -19 18 -41 18 -117 l0 -94 -60 0 -60 0 0 83 c0 51
-5 88 -12 95 -7 7 -40 12 -80 12 -62 0 -68 -2 -68 -21 0 -12 -8 -23 -20 -26
-18 -5 -20 -14 -20 -74 l0 -69 -60 0 -60 0 0 260 0 260 128 0 c70 0 145 -5
166 -10z m494 -97 c3 -101 3 -103 27 -103 13 0 28 6 32 14 4 7 14 15 21 17 7
3 30 43 51 89 l37 85 59 3 c32 2 62 -1 67 -6 5 -5 -5 -40 -26 -85 -53 -116
-53 -114 -11 -131 51 -22 65 -62 65 -191 l0 -106 -62 3 -63 3 -5 100 -5 100
-72 3 c-66 3 -73 1 -73 -16 0 -11 -9 -22 -20 -25 -18 -5 -20 -14 -20 -87 l0
-81 -57 3 -58 3 -3 258 -2 258 57 -3 58 -3 3 -102z m-2391 91 c-3 -3 -12 -4
-19 -1 -8 3 -5 6 6 6 11 1 17 -2 13 -5z m1343 -29 c0 -5 -5 -3 -10 5 -5 8 -10
20 -10 25 0 6 5 3 10 -5 5 -8 10 -19 10 -25z m-5930 2 c-19 -7 -40 -23 -47
-37 -7 -14 -13 -18 -13 -10 0 30 38 60 75 59 12 0 6 -5 -15 -12z m1310 9 c0
-2 -7 -7 -16 -10 -8 -3 -12 -2 -9 4 6 10 25 14 25 6z m140 -28 c11 -18 20 -37
20 -43 -1 -5 -8 4 -16 20 -9 17 -23 36 -32 43 -10 7 -11 12 -4 12 7 0 21 -15
32 -32z m680 5 c19 -24 21 -38 18 -104 -3 -83 -19 -110 -60 -108 l-23 2 22 4
c37 7 53 41 53 111 0 71 -11 99 -43 112 -16 6 -18 9 -5 9 9 1 26 -11 38 -26z
m570 -393 l139 0 4 78 3 77 0 -80 -1 -80 -147 -3 -148 -3 2 218 3 218 2 -212
3 -213 140 0z m592 210 l-3 -209 63 -4 c35 -2 5 -3 -67 -3 -71 0 -102 1 -67 3
l62 4 0 209 c0 116 3 210 8 210 4 0 6 -94 4 -210z m601 -213 l132 -3 -137 -2
-138 -2 2 218 3 217 2 -212 3 -212 133 -4z m585 161 l107 -2 -107 -3 -107 -4
-4 -77 c-1 -42 -3 20 -3 138 0 118 2 155 3 83 l4 -133 107 -2z m109 256 c-3
-3 -12 -4 -19 -1 -8 3 -5 6 6 6 11 1 17 -2 13 -5z m380 -16 c-3 -8 -6 -5 -6 6
-1 11 2 17 5 13 3 -3 4 -12 1 -19z m128 -238 c110 0 151 11 161 42 3 11 8 18
10 15 10 -10 -10 -39 -37 -52 -19 -10 -60 -15 -133 -15 l-105 0 -4 -82 c-1
-46 -3 16 -3 137 0 121 2 160 3 88 l4 -133 104 0z m604 257 c-2 -1 -13 -9 -24
-17 -19 -14 -19 -14 -6 3 7 9 18 17 24 17 6 0 8 -1 6 -3z m136 -28 c9 -17 14
-33 12 -36 -3 -2 -8 5 -12 16 -3 12 -13 28 -21 36 -9 8 -11 15 -5 15 6 0 18
-14 26 -31z m432 -291 c-1 -62 -3 -14 -3 107 0 121 2 172 3 113 2 -59 2 -158
0 -220z m243 302 c11 -11 20 -26 19 -32 0 -7 -5 -3 -11 9 -6 12 -22 27 -37 32
-17 6 -20 10 -8 10 9 1 26 -8 37 -19z m-5044 -95 c38 -88 53 -155 35 -155 -6
0 -11 9 -11 19 0 25 -67 181 -87 203 -10 12 -33 19 -62 20 l-46 1 50 7 c29 3
58 2 68 -5 10 -5 34 -46 53 -90z m647 77 c13 -12 17 -29 16 -81 l-2 -66 -6 54
c-10 80 -38 100 -144 103 l-82 2 85 5 c94 7 107 5 133 -17z m3740 -81 c20 -50
37 -105 37 -123 0 -26 -8 -13 -39 65 -55 139 -62 147 -119 149 l-47 1 50 6
c28 4 57 3 65 0 9 -4 33 -48 53 -98z m-4293 64 c0 -5 -5 -3 -10 5 -5 8 -10 20
-10 25 0 6 5 3 10 -5 5 -8 10 -19 10 -25z m1698 28 c-10 -2 -26 -2 -35 0 -10
3 -2 5 17 5 19 0 27 -2 18 -5z m1352 -13 c17 -17 20 -32 19 -92 l-2 -73 -7 63
c-11 94 -26 105 -148 113 l-97 6 108 1 c95 2 109 0 127 -18z m626 -1 c13 -15
19 -38 21 -87 l2 -67 -9 50 c-10 58 -26 91 -49 101 -9 5 -56 11 -106 14 l-90
6 106 2 c95 2 108 0 125 -19z m1265 5 c7 -8 14 -41 16 -72 l3 -57 -14 49 c-22
73 -33 80 -139 87 l-92 5 106 2 c86 2 109 -1 120 -14z m128 -110 c-7 -16 -12
-32 -11 -36 1 -5 -5 -8 -15 -8 -14 0 -14 2 2 20 12 14 21 43 24 83 6 59 6 60
9 16 2 -25 -2 -58 -9 -75z m-3966 -297 l122 -3 -127 -2 -128 -2 2 208 3 207 2
-202 3 -202 123 -4z m2988 376 c-12 -20 -14 -14 -5 12 4 9 9 14 11 11 3 -2 0
-13 -6 -23z m-4402 -47 c-12 -31 -24 -55 -26 -53 -2 2 6 30 18 61 12 31 24 55
26 53 2 -2 -6 -30 -18 -61z m131 54 c11 -7 7 -10 -17 -10 -18 0 -33 -4 -33
-10 0 -5 -9 -18 -20 -28 -17 -16 -60 -119 -60 -144 0 -4 31 -8 69 -8 60 0 69
2 74 20 3 12 14 20 26 20 19 0 20 2 6 41 -8 23 -15 47 -15 53 1 11 42 -82 54
-121 l7 -23 -127 0 -127 0 6 43 c6 42 42 140 60 165 11 14 75 16 97 2z m580
-14 c0 -16 -7 -26 -21 -29 -19 -5 -21 -12 -17 -61 2 -40 -1 -56 -9 -56 -10 0
-13 24 -13 85 l0 85 30 0 c25 0 30 -4 30 -24z m2518 17 c-29 -3 -38 -9 -38
-22 0 -10 -9 -21 -20 -24 -17 -4 -20 -14 -20 -71 l0 -66 53 0 c46 1 56 5 86
35 32 32 33 37 29 86 -5 47 -4 51 9 33 9 -13 13 -41 11 -89 l-3 -70 -102 -3
-103 -3 0 101 0 100 68 -2 c41 -1 52 -3 30 -5z m625 0 c-32 -3 -43 -8 -43 -21
0 -10 -9 -23 -20 -30 -15 -9 -20 -23 -20 -56 0 -69 5 -76 62 -76 64 0 105 36
108 96 3 64 -3 73 -9 14 l-6 -55 -53 -3 -53 -3 3 58 3 58 62 1 c58 1 63 -1 73
-26 6 -15 10 -53 8 -86 l-3 -59 -107 -3 -108 -3 0 94 c0 52 3 97 7 100 3 4 36
6 72 5 49 -1 55 -2 24 -5z m657 -3 c12 -8 10 -10 -9 -10 -33 0 -78 -53 -96
-114 -23 -77 -24 -76 56 -76 59 0 70 3 65 15 -3 10 3 17 20 21 26 7 26 8 9 71
-3 10 6 -4 19 -32 43 -86 44 -85 -99 -85 -107 0 -125 2 -125 16 0 17 46 157
62 187 10 19 72 24 98 7z m588 -13 c3 -12 -4 -20 -17 -24 -18 -5 -21 -13 -21
-64 0 -46 -3 -59 -15 -59 -12 0 -15 16 -15 86 l0 85 32 -3 c22 -2 34 -9 36
-21z m928 -14 c-8 -15 -15 -25 -16 -21 0 12 23 58 27 54 3 -2 -2 -17 -11 -33z
m-5406 -68 c0 -57 -4 -95 -10 -95 -11 0 -14 172 -3 183 12 13 13 7 13 -88z
m1397 -167 c-1 -51 -3 -12 -3 87 0 99 2 141 3 93 2 -48 2 -129 0 -180z m231
246 c4 2 6 -19 5 -47 -1 -29 -2 -88 -2 -132 l-1 -80 -50 3 -50 4 0 76 0 76 48
50 c50 52 42 53 -20 2 l-38 -31 0 -92 0 -93 44 0 c25 0 47 -3 49 -7 3 -5 -19
-6 -49 -5 l-54 4 0 134 0 134 44 0 c25 0 48 5 52 12 6 9 9 9 12 0 2 -7 7 -10
10 -8z m239 -117 c-2 -23 -3 -1 -3 48 0 50 1 68 3 42 2 -26 2 -67 0 -90z m895
-36 c-10 -14 -24 -27 -31 -29 -7 -2 -1 7 13 22 23 22 26 34 28 103 l2 78 3
-74 c3 -61 1 -80 -15 -100z m335 -3 c-2 -35 -3 -9 -3 57 0 66 1 94 3 63 2 -32
2 -86 0 -120z m1280 20 c-2 -29 -3 -6 -3 52 0 58 1 81 3 53 2 -29 2 -77 0
-105z m-4667 107 c0 -5 -5 -3 -10 5 -5 8 -10 20 -10 25 0 6 5 3 10 -5 5 -8 10
-19 10 -25z m484 19 c10 -25 7 -59 -6 -72 -7 -7 -29 -12 -50 -12 l-38 0 0 50
0 50 44 0 c31 0 46 -5 50 -16z m2480 0 c16 -16 21 -59 10 -88 -4 -12 -20 -16
-55 -16 l-49 0 0 60 0 60 39 0 c23 0 46 -7 55 -16z m1901 -34 l0 -45 -42 -3
-43 -3 0 51 0 51 43 -3 42 -3 0 -45z m92 -17 c-2 -16 -4 -5 -4 22 0 28 2 40 4
28 2 -13 2 -35 0 -50z m-5142 17 c7 -19 15 -47 19 -62 l6 -28 -60 0 c-33 0
-60 1 -60 3 0 2 7 26 16 53 9 27 18 55 20 62 8 27 47 8 59 -28z m2713 -214
c-2 -1 -27 0 -56 2 l-52 4 25 30 c21 25 25 40 25 97 0 61 3 71 28 96 l27 27 3
-127 c1 -70 1 -129 0 -129z m239 222 c-3 -7 -5 -2 -5 12 0 14 2 19 5 13 2 -7
2 -19 0 -25z m930 -50 c-2 -18 -4 -6 -4 27 0 33 2 48 4 33 2 -15 2 -42 0 -60z
m510 20 l19 -63 -54 -3 c-30 -2 -56 -1 -59 2 -2 2 3 32 13 65 14 52 20 61 39
61 20 0 26 -10 42 -62z m693 -20 l0 -58 -41 0 c-38 0 -40 1 -28 18 8 9 22 23
32 30 11 9 17 27 17 55 0 31 3 38 10 27 5 -8 10 -41 10 -72z m-4990 37 c0 -5
-5 -3 -10 5 -5 8 -10 20 -10 25 0 6 5 3 10 -5 5 -8 10 -19 10 -25z m600 -30
l0 -65 -42 1 c-24 0 -37 3 -30 6 6 2 12 11 12 19 0 8 7 14 15 14 18 0 35 31
35 64 0 14 2 26 5 26 3 0 5 -29 5 -65z m3541 38 c-12 -20 -14 -14 -5 12 4 9 9
14 11 11 3 -2 0 -13 -6 -23z m349 -28 c0 -5 -5 -3 -10 5 -5 8 -10 20 -10 25 0
6 5 3 10 -5 5 -8 10 -19 10 -25z m-1633 -97 c-2 -24 -4 -7 -4 37 0 44 2 63 4
43 2 -21 2 -57 0 -80z m1259 56 c-8 -21 -15 -34 -15 -28 -1 15 20 76 25 71 2
-2 -2 -21 -10 -43z m1699 11 c24 -24 25 -27 23 -172 l-2 -148 -5 130 c-6 139
-18 176 -61 190 -26 8 -26 25 0 25 12 0 32 -11 45 -25z m-5786 -25 c0 -10 -3
-8 -9 5 -12 27 -12 43 0 25 5 -8 9 -22 9 -30z m2500 -12 l-2 -53 -7 45 c-7 42
-5 60 6 60 2 0 3 -24 3 -52z m1979 -3 c0 -16 -2 -15 -8 5 -11 34 -11 60 0 35
5 -11 8 -29 8 -40z m-3719 -8 c7 -10 9 -17 4 -14 -5 3 -8 -24 -7 -61 2 -55 1
-60 -5 -26 -7 44 -35 94 -51 94 -6 0 -10 6 -10 13 0 22 55 17 69 -6z m1141
-137 c27 0 50 -3 52 -7 2 -5 1 -26 -3 -48 -5 -35 -6 -36 -8 -9 -1 40 -17 54
-63 54 l-38 0 2 88 2 87 3 -82 4 -83 49 0z m560 125 l0 -35 -75 0 c-67 0 -75
-2 -75 -19 0 -10 -9 -21 -20 -24 -14 -4 -20 -13 -20 -34 0 -49 8 -52 135 -56
l120 -3 -137 -2 -138 -2 0 75 0 75 74 0 c41 0 78 4 81 10 7 12 -23 19 -100 23
-37 2 -20 4 43 5 60 1 102 6 102 12 0 6 2 10 5 10 3 0 5 -16 5 -35z m1927 -2
c-3 -10 -5 -4 -5 12 0 17 2 24 5 18 2 -7 2 -21 0 -30z m737 6 c24 -29 26 -38
28 -147 l2 -117 6 115 6 115 2 -112 2 -111 -60 -52 -60 -52 -80 1 c-45 0 -85
3 -91 6 -5 4 -9 42 -9 86 0 62 -3 81 -15 85 -10 4 -15 20 -15 48 0 24 2 45 4
47 3 2 33 2 68 -1 l63 -5 5 -85 5 -85 80 -3 80 -3 -5 103 c-6 106 -13 130 -49
162 -24 22 -27 36 -7 36 8 0 26 -14 40 -31z m-5279 -49 l154 0 4 33 c2 17 4
-17 3 -78 0 -72 -1 -85 -3 -37 l-4 72 -154 0 -154 0 -4 -72 c-2 -44 -3 -27 -3
42 -1 63 1 98 3 78 l4 -38 154 0z m3985 20 c-12 -29 -120 -124 -170 -150 -14
-8 -42 -17 -62 -20 l-38 -7 0 47 0 47 88 5 c48 3 99 11 115 19 30 14 67 65 68
95 0 12 3 14 6 6 3 -7 0 -26 -7 -42z m-2319 38 c0 -2 3 -35 6 -74 l5 -70 -46
-48 -46 -47 0 121 0 120 40 0 c22 0 40 -1 41 -2z m-2991 -128 c8 -5 61 -10
118 -10 l102 0 -1 -62 -1 -63 -8 48 c-5 27 -12 52 -15 55 -4 4 -55 9 -113 12
l-107 5 -1 70 -2 70 7 -58 c4 -34 12 -62 21 -67z m1147 58 c-2 -13 -4 -5 -4
17 -1 22 1 32 4 23 2 -10 2 -28 0 -40z m853 32 c-20 -13 -140 -13 -140 0 0 6
32 10 78 10 53 0 72 -3 62 -10z m257 -12 c-3 -8 -6 -5 -6 6 -1 11 2 17 5 13 3
-3 4 -12 1 -19z m3710 -150 c-2 -35 -3 -9 -3 57 0 66 1 94 3 63 2 -32 2 -86 0
-120z m418 162 c-3 -5 -37 -10 -76 -10 -39 0 -69 4 -69 10 0 6 32 10 76 10 47
0 73 -4 69 -10z m-858 -32 c-3 -7 -5 -2 -5 12 0 14 2 19 5 13 2 -7 2 -19 0
-25z m-1054 5 c-23 -2 -64 -2 -90 0 -26 2 -7 3 42 3 50 0 71 -1 48 -3z m620 0
c-23 -2 -64 -2 -90 0 -26 2 -7 3 42 3 50 0 71 -1 48 -3z m700 0 c-46 -2 -120
-2 -165 0 -46 1 -9 3 82 3 91 0 128 -2 83 -3z m-3626 -110 c-2 -21 -4 -4 -4
37 0 41 2 58 4 38 2 -21 2 -55 0 -75z m-794 90 c-34 -2 -93 -2 -130 0 -37 2
-9 3 62 3 72 0 102 -1 68 -3z m4380 0 c-34 -2 -93 -2 -130 0 -37 2 -9 3 62 3
72 0 102 -1 68 -3z m-5810 -101 c12 -6 16 -11 10 -11 -19 -1 -53 36 -52 57 0
11 4 8 10 -9 5 -15 20 -31 32 -37z m4095 -14 c-1 -56 -2 -58 -5 -16 -5 56 -15
65 -73 71 -38 3 -36 4 18 5 l62 2 -2 -62z m1744 -5 l3 -68 88 0 88 0 -28 -23
c-92 -76 -85 -73 -174 -70 l-84 3 -5 65 c-3 45 -9 64 -17 63 -9 -2 -13 12 -13
47 l0 50 70 0 69 0 3 -67z m-5669 0 c-23 -2 -64 -2 -90 0 -26 2 -7 3 42 3 50
0 71 -1 48 -3z m-176 -49 c-3 -3 -12 -4 -19 -1 -8 3 -5 6 6 6 11 1 17 -2 13
-5z"/>
<path d="M1229 1103 c-1 -5 -5 -62 -9 -128 l-6 -120 -2 103 c-1 60 -6 102 -12
102 -6 0 -10 -80 -10 -220 0 -140 4 -220 10 -220 6 0 11 40 12 98 l2 97 5 -79
c8 -112 29 -114 33 -4 l3 83 95 5 c52 3 107 4 122 2 l27 -3 3 -102 c4 -142 22
-126 28 25 l6 123 2 -107 c2 -89 5 -108 17 -108 13 0 15 30 13 228 -2 143 -7
227 -13 227 -6 0 -12 -47 -16 -110 l-5 -110 -2 88 c-2 70 -5 87 -17 87 -12 0
-15 -16 -15 -85 l0 -86 -122 3 -123 3 -3 108 c-1 60 -7 107 -12 107 -6 0 -11
-3 -11 -7z m329 -230 c-1 -120 -4 -170 -5 -110 l-4 107 -157 2 -157 2 158 3
157 4 0 104 c0 58 2 105 5 105 3 0 4 -98 3 -217z m-115 -20 c-35 -2 -91 -2
-125 0 -35 2 -7 3 62 3 69 0 97 -1 63 -3z"/>
<path d="M7640 986 c0 -77 -4 -126 -10 -126 -6 0 -10 40 -10 100 0 60 -4 100
-10 100 -6 0 -10 -80 -10 -220 0 -140 4 -220 10 -220 6 0 10 38 10 95 0 57 4
95 10 95 6 0 10 -34 10 -81 0 -60 3 -80 13 -77 8 3 13 33 15 91 l3 87 72 0
c84 -1 146 -13 158 -32 5 -7 9 -50 9 -96 0 -63 3 -83 13 -79 8 3 12 30 12 89
0 100 -12 122 -79 137 l-41 9 51 1 c74 1 84 -14 84 -122 0 -71 3 -87 15 -87
12 0 15 16 15 83 0 45 -3 92 -6 105 -7 26 -51 52 -89 52 -14 0 -25 3 -25 8 0
4 19 51 42 105 22 53 38 100 35 103 -13 14 -71 -64 -102 -136 l-32 -75 -66 -3
-66 -3 -3 107 c-2 75 -7 109 -15 112 -10 3 -13 -26 -13 -122z m278 79 c-6 -14
-13 -23 -15 -21 -5 5 15 46 22 46 3 0 -1 -11 -7 -25z m-32 -72 c-8 -15 -15
-25 -16 -21 0 12 23 58 27 54 3 -2 -2 -17 -11 -33z m-30 -70 c-8 -15 -15 -25
-16 -21 0 12 23 58 27 54 3 -2 -2 -17 -11 -33z m-105 -43 c161 3 168 2 194
-25 23 -22 25 -31 23 -112 l-2 -88 -5 93 c-8 125 -6 124 -179 120 -126 -3
-132 -2 -132 17 0 15 3 16 9 7 6 -10 32 -13 92 -12z m7 -27 c-15 -2 -42 -2
-60 0 -18 2 -6 4 27 4 33 0 48 -2 33 -4z"/>
<path d="M2607 5711 c-35 -42 -35 -85 -3 -263 14 -73 29 -212 35 -308 20 -324
35 -367 134 -394 29 -8 95 -26 147 -40 112 -31 269 -46 474 -46 133 0 152 2
182 21 40 24 104 127 134 214 54 157 110 495 94 569 -11 54 -33 85 -74 106
-59 30 -205 66 -365 90 -77 11 -205 32 -285 45 -80 13 -213 27 -296 30 l-150
8 -27 -32z m530 -121 c346 -55 423 -70 491 -93 l67 -22 3 -50 c9 -132 -61
-455 -123 -574 -21 -40 -46 -76 -56 -81 -26 -15 -439 5 -519 24 -132 32 -213
55 -221 63 -12 12 -26 133 -39 333 -6 91 -17 194 -25 230 -18 80 -19 172 -3
188 23 23 222 14 425 -18z"/>
<path d="M4432 5678 c-76 -112 -111 -266 -113 -503 -2 -155 -1 -163 30 -258
63 -193 241 -580 301 -656 16 -20 46 -83 67 -141 l38 -105 0 -280 c0 -235 -5
-318 -27 -515 -22 -194 -25 -251 -17 -325 23 -229 59 -97 136 505 12 93 17
208 18 370 l0 235 -43 127 c-32 96 -54 142 -88 187 -76 101 -264 520 -304 677
-17 67 -19 98 -14 214 8 178 33 301 80 396 41 83 39 106 -9 112 -20 3 -31 -5
-55 -40z"/>
<path d="M6108 5369 c-49 -28 -4 -79 222 -249 47 -35 115 -94 152 -131 37 -37
76 -73 87 -79 40 -21 84 27 62 67 -22 41 -157 159 -317 277 -95 69 -176 126
-180 126 -5 0 -17 -5 -26 -11z"/>
<path d="M6173 4993 c-7 -2 -13 -16 -13 -30 0 -18 21 -46 79 -102 92 -89 108
-127 118 -279 7 -111 24 -144 65 -125 32 14 40 65 28 177 -15 143 -50 208
-162 305 -65 57 -85 67 -115 54z"/>
<path d="M6131 4541 c-8 -14 -3 -50 19 -137 43 -175 52 -244 48 -394 -1 -74 1
-141 5 -147 16 -26 48 -14 65 25 24 53 23 275 -2 392 -26 126 -74 267 -92 274
-25 10 -33 7 -43 -13z"/>
<path d="M6742 4298 c-17 -17 -15 -64 4 -103 16 -35 205 -225 223 -225 6 0 8
-12 5 -30 -5 -21 2 -48 24 -94 36 -76 84 -113 192 -147 93 -29 283 -44 334
-27 48 16 86 69 66 93 -10 12 -17 12 -50 0 -48 -17 -245 -5 -330 21 -96 28
-119 43 -145 94 l-24 47 57 -14 c66 -16 123 -10 234 22 122 35 160 71 102 97
-20 10 -42 8 -113 -10 -124 -31 -199 -29 -270 6 -66 33 -251 208 -251 238 0
22 -18 44 -35 44 -6 0 -16 -5 -23 -12z"/>
<path d="M5985 4016 c-21 -15 -18 -34 21 -156 28 -83 28 -90 28 -325 0 -222
-1 -245 -23 -315 -33 -109 -33 -125 3 -125 24 0 34 8 58 47 49 80 60 163 55
413 -5 237 -17 306 -72 415 -27 53 -45 65 -70 46z"/>
<path d="M5802 3698 c-5 -7 -12 -87 -14 -178 -4 -159 -6 -169 -41 -269 -37
-106 -46 -164 -26 -177 17 -10 43 23 89 113 59 118 73 197 65 363 -7 137 -14
160 -45 160 -10 0 -22 -6 -28 -12z"/>
<path d="M7297 3623 c-4 -3 -7 -17 -7 -29 0 -26 9 -30 107 -38 35 -3 98 -15
140 -26 100 -27 299 -38 342 -20 30 12 48 45 39 70 -2 8 -56 13 -158 15 -99 2
-177 9 -215 19 -59 16 -235 22 -248 9z"/>
<path d="M7622 3398 c-29 -29 -12 -47 89 -99 177 -91 245 -182 326 -438 38
-120 60 -154 96 -149 19 3 22 9 20 50 0 26 -15 91 -33 145 -80 251 -177 375
-355 458 -102 47 -124 52 -143 33z"/>
<path d="M3973 3028 c-25 -34 -194 -402 -212 -462 -24 -78 -27 -164 -8 -191
22 -29 34 -10 40 67 8 87 26 144 100 303 86 188 118 268 113 282 -7 16 -21 17
-33 1z"/>
<path d="M5534 3010 c-32 -18 -115 -71 -184 -119 -120 -85 -266 -171 -340
-202 -25 -10 -68 -13 -152 -11 -116 2 -118 2 -134 -23 -15 -23 -15 -27 -1 -49
14 -21 27 -25 103 -31 138 -12 183 -3 308 59 174 86 491 335 484 379 -5 31
-20 30 -84 -3z"/>
<path d="M3857 2295 c-4 -41 -2 -86 3 -100 15 -39 92 -145 106 -145 37 0 20
71 -32 133 -20 23 -24 40 -24 92 0 75 -6 95 -30 95 -14 0 -18 -13 -23 -75z"/>
<path d="M6320 2239 c-93 -60 -141 -102 -252 -224 -177 -193 -478 -587 -478
-625 0 -22 18 -7 66 53 386 482 532 647 644 727 107 76 114 84 98 98 -12 10
-27 4 -78 -29z"/>
<path d="M3352 1627 c-8 -10 -6 -29 9 -76 15 -49 34 -81 81 -135 87 -99 179
-179 191 -167 7 7 -17 40 -69 98 -130 144 -141 159 -159 215 -21 66 -37 85
-53 65z"/>
</g>
</svg>
